<?xml version="1.0" encoding="UTF-8"?>
<svg id="Layer_2" data-name="Layer 2" xmlns="http://www.w3.org/2000/svg" viewBox="0 0 3460.47 857.4">
  <defs>
    <style>
      .cls-1 {
        fill: #fff;
        stroke-width: 0px;
      }
    </style>
  </defs>
  <g id="Layer_1-2" data-name="Layer 1">
    <g>
      <path class="cls-1" d="M1330.06,268.94h6.85c24.93,0,47.47,14.83,57.33,37.73l232.31,539.32h-117.37l-53.79-132.02h-250.22l-52.13,132.02h-114.94l234.72-539.52c9.91-22.78,32.39-37.52,57.24-37.52ZM1419.54,625.92l-85.72-226.44c-1.1-2.9-5.19-2.91-6.3-.02l-87.29,226.46h179.31Z"/>
      <path class="cls-1" d="M1929.19,563.17c-7.59-10.84-19-19.96-34.22-27.29-15.22-7.33-30.71-11.01-46.46-11.01-17.91,0-33.69,3.68-47.26,11.01-13.6,7.33-24.87,16.98-33.83,28.92-8.95,11.97-15.62,25.4-19.96,40.36-4.34,14.96-6.53,30.01-6.53,45.23s2.32,30.28,6.93,45.23c4.61,14.96,11.54,28.39,20.79,40.33,9.22,11.97,20.79,21.62,34.62,28.95,13.86,7.33,30.01,10.98,48.52,10.98,15.19,0,30.41-2.95,45.63-8.95,15.19-5.97,27.43-14.66,36.68-26.07l61.12,61.92c-16.28,17.41-37.08,30.88-62.35,40.36-25.27,9.48-52.56,14.26-81.91,14.26s-56.11-4.61-81.91-13.86c-25.8-9.22-48.35-22.82-67.65-40.76-19.27-17.91-34.49-39.63-45.63-65.2-11.14-25.54-16.71-54.59-16.71-87.19s5.57-60.03,16.71-85.59c11.14-25.54,26.2-47.26,45.23-65.2,19-17.91,41.16-31.77,66.43-41.55,25.27-9.78,52.3-14.69,81.08-14.69s56.64,5.44,83.54,16.32c26.89,10.87,48.21,25.79,63.99,44.82,0,0,0,.02,0,.03l-66.84,58.65Z"/>
      <path class="cls-1" d="M2309.96,563.17c-7.59-10.84-19-19.96-34.22-27.29-15.22-7.33-30.71-11.01-46.46-11.01-17.91,0-33.69,3.68-47.26,11.01-13.6,7.33-24.87,16.98-33.83,28.92-8.95,11.97-15.62,25.4-19.96,40.36-4.34,14.96-6.53,30.01-6.53,45.23s2.32,30.28,6.93,45.23c4.61,14.96,11.54,28.39,20.79,40.33,9.22,11.97,20.79,21.62,34.62,28.95,13.86,7.33,30.01,10.98,48.52,10.98,15.19,0,30.41-2.95,45.63-8.95,15.19-5.97,27.43-14.66,36.68-26.07l61.12,61.92c-16.28,17.41-37.08,30.88-62.35,40.36-25.27,9.48-52.56,14.26-81.91,14.26s-56.11-4.61-81.91-13.86c-25.8-9.22-48.35-22.82-67.65-40.76-19.27-17.91-34.49-39.63-45.63-65.2-11.14-25.54-16.71-54.59-16.71-87.19s5.57-60.03,16.71-85.59c11.14-25.54,26.2-47.26,45.23-65.2,19-17.91,41.16-31.77,66.43-41.55,25.27-9.78,52.3-14.69,81.08-14.69s56.64,5.44,83.54,16.32c26.89,10.87,48.21,25.79,63.99,44.82,0,0,0,.02,0,.03l-66.84,58.65Z"/>
      <path class="cls-1" d="M2796.08,676.26c0,2.82-2.28,5.1-5.1,5.1,0,0-.28,0-.28,0h-292.62c1.09,14.13,4.78,27.03,11.01,38.7,6.23,11.71,14.53,21.72,24.87,30.15,10.31,8.46,21.99,15.09,35.05,19.96,13.03,4.91,26.6,7.36,40.72,7.36,24.47,0,45.1-4.51,61.95-13.46,16.85-8.95,30.71-21.32,41.59-37.08l65.19,52.16s0,.02,0,.02c-38.6,52.16-94.55,78.22-167.9,78.22-30.44,0-58.4-4.78-83.94-14.26-25.57-9.48-47.69-22.95-66.43-40.36-18.77-17.38-33.43-38.7-44.01-63.97-10.61-25.27-15.92-53.92-15.92-85.99s5.31-60.16,15.92-85.96c10.58-25.8,25.1-47.82,43.58-66.03,18.47-18.21,40.36-32.33,65.63-42.38,25.27-10.05,52.56-15.09,81.91-15.09,27.16,0,52.27,4.51,75.38,13.46,23.08,8.95,43.05,22.29,59.89,39.93,16.85,17.68,30.01,39.66,39.53,66.03,9.52,26.36,14.26,57.17,14.26,92.49v13.03c0,2.55-.27,7.29-.27,7.29l-.04.67ZM2698.57,611.26s.02-.01.02-.02c0-12.49-1.76-24.43-5.31-35.83-3.52-11.41-9.09-21.46-16.68-30.18-7.63-8.66-17.28-15.59-28.95-20.76-11.67-5.17-25.4-7.76-41.16-7.76-29.35,0-54.19,8.85-74.58,26.5-20.36,17.67-31.63,40.35-33.82,68.03,0,.01,0,.02.02.02h200.46Z"/>
      <path class="cls-1" d="M2872.11,268.47h97.8v577.52h-97.8V268.47Z"/>
      <path class="cls-1" d="M3035.02,648.77c0-30.97,5.57-59.1,16.71-84.37,11.14-25.27,26.2-46.86,45.23-64.8,19-17.91,41.55-31.77,67.65-41.55,26.07-9.78,53.79-14.69,83.14-14.69s57.04,4.91,83.11,14.69c26.1,9.78,48.65,23.65,67.65,41.55,19.04,17.94,34.09,39.53,45.23,64.8,11.14,25.27,16.71,53.39,16.71,84.37s-5.57,59.23-16.71,84.77c-11.14,25.54-26.2,47.39-45.23,65.6-19,18.21-41.55,32.47-67.65,42.78-26.07,10.31-53.79,15.49-83.11,15.49s-57.07-5.17-83.14-15.49c-26.1-10.31-48.65-24.57-67.65-42.78-19.04-18.21-34.09-40.06-45.23-65.6-11.14-25.54-16.71-53.82-16.71-84.77ZM3134.48,648.77c0,15.19,2.29,30.41,6.93,45.63,4.61,15.22,11.51,28.79,20.76,40.76,9.25,11.94,20.93,21.72,35.05,29.32,14.13,7.63,30.97,11.41,50.54,11.41s36.38-3.78,50.51-11.41c14.13-7.59,25.8-17.38,35.05-29.32,9.25-11.97,16.15-25.54,20.79-40.76,4.61-15.22,6.93-30.44,6.93-45.63s-2.32-30.31-6.93-45.23c-4.64-14.96-11.54-28.39-20.79-40.36-9.25-11.94-20.93-21.59-35.05-28.92-14.13-7.36-30.94-11.01-50.51-11.01s-36.41,3.65-50.54,11.01c-14.13,7.33-25.8,16.98-35.05,28.92-9.25,11.97-16.15,25.4-20.76,40.36-4.64,14.92-6.93,30.01-6.93,45.23Z"/>
      <path class="cls-1" d="M680.81,789.86l4.19,9.08,9.29,20.19.11.26c.05.11.11.23.17.35.1.21.2.42.3.63.1.21.2.42.31.63.14.26.26.52.41.78.14.27.27.52.42.78.38.69.78,1.36,1.18,2.02.32.52.64,1.03.99,1.54,4.37,6.54,10.25,11.88,17.04,15.61,1.05.57,2.12,1.11,3.2,1.6.14.06.26.12.39.18.26.11.52.22.76.33.79.33,1.58.64,2.37.94.41.15.8.28,1.21.42.06.02.11.04.16.06.21.06.41.14.62.2.43.14.86.27,1.29.39.43.12.87.25,1.31.36.55.14,1.12.27,1.69.39.27.07.55.14.84.18.28.06.57.12.86.16.01.01.02.01.04.01.31.05.62.11.92.16.25.04.51.07.76.11.47.07.94.14,1.4.19.31.04.62.07.92.1.48.05.97.1,1.47.12.48.04.97.06,1.45.07.57.02,1.15.04,1.71.04h.06c.58,0,1.17-.01,1.75-.04.6-.02,1.21-.05,1.8-.1.57-.04,1.12-.09,1.68-.15.05,0,.1-.01.14-.01,1.18-.14,2.34-.31,3.5-.53.58-.1,1.16-.22,1.74-.36.53-.11,1.05-.23,1.58-.37.05-.01.09-.02.14-.04.6-.16,1.21-.33,1.8-.52.39-.11.78-.25,1.16-.37.46-.15.91-.31,1.37-.48.2-.07.41-.15.62-.22.21-.07.42-.16.62-.25.81-.32,1.63-.67,2.43-1.03.26-.12.51-.23.75-.35.07-.04.14-.07.2-.1.09-.05.17-.09.25-.12.01-.01.04-.01.05-.02.32-.15.63-.32.94-.48.91-.47,1.81-.97,2.69-1.5.38-.22.75-.46,1.11-.69.16-.11.33-.21.49-.32.39-.26.79-.52,1.17-.8.09-.05.16-.11.25-.17.44-.31.87-.63,1.31-.96.92-.7,1.82-1.44,2.7-2.21.43-.39.86-.79,1.28-1.18.43-.41.85-.81,1.26-1.23.41-.42.81-.84,1.21-1.27.39-.43.79-.87,1.17-1.33.75-.9,1.48-1.81,2.17-2.76.69-.96,1.36-1.93,1.98-2.94.32-.51.62-1.01.91-1.53.3-.52.59-1.05.86-1.58.28-.53.55-1.06.81-1.6.26-.54.51-1.1.75-1.65.09-.18.17-.38.25-.58l8.74-20.07,3.99-9.18,178.62-410.58,4-9.2h.01s8.94-20.59,8.94-20.59c4.1-9.43,5.1-19.66,2.98-29.51.01-.01.01-.02,0-.02-.1-.47-.21-.94-.32-1.4-.16-.64-.33-1.29-.52-1.93-.42-1.47-.92-2.93-1.49-4.37-.47-1.18-.97-2.33-1.52-3.46-.22-.46-.46-.9-.69-1.36-.26-.51-.53-1-.81-1.49-.25-.43-.49-.85-.75-1.27-1.28-2.09-2.71-4.08-4.25-5.93-.31-.37-.63-.73-.95-1.1-.31-.36-.64-.71-.97-1.06-1.1-1.16-2.24-2.25-3.45-3.3-.44-.39-.91-.78-1.38-1.15-.35-.28-.69-.55-1.05-.83-.78-.58-1.55-1.15-2.35-1.68-.37-.25-.74-.48-1.11-.71-.76-.48-1.53-.94-2.32-1.37-1.38-.76-2.8-1.47-4.26-2.11-1.55-.68-3.12-1.27-4.71-1.77-.39-.12-.79-.25-1.18-.36-.28-.09-.55-.16-.84-.23-.36-.1-.71-.2-1.08-.28-.57-.14-1.13-.27-1.7-.39-.63-.12-1.27-.25-1.91-.36-.44-.07-.9-.14-1.34-.2-.49-.06-.99-.12-1.48-.17-1.21-.14-2.41-.22-3.63-.26-.5-.01-1.01-.02-1.52-.02-.6,0-1.21.01-1.81.04-.6.02-1.21.05-1.8.1-.51.04-1.01.07-1.5.14-.7.07-1.4.16-2.09.26-1.75.26-3.47.62-5.16,1.06-.58.15-1.13.31-1.7.48-1.88.57-3.73,1.26-5.53,2.04-.49.21-.97.43-1.44.67-.02.01-.06.02-.09.05-.47.21-.94.44-1.39.69l-.15.07-19.86,10.44-8.9,4.68h-.01l-255.91,134.53-4.36,2.29-4.37,2.3-2.06-4.48-2.06-4.48L451.45,57.88l-4.19-9.1-9.36-20.35c-.17-.37-.35-.73-.52-1.08-.16-.33-.33-.67-.51-1-.2-.39-.41-.79-.62-1.17-.26-.48-.53-.95-.8-1.4-.12-.21-.25-.42-.38-.63-.51-.83-1.02-1.63-1.59-2.42-3.33-4.73-7.44-8.8-12.12-12.04-.06-.06-.12-.11-.18-.14-.39-.28-.8-.55-1.22-.81-.67-.43-1.36-.85-2.06-1.24-.58-.33-1.16-.65-1.75-.96-.71-.37-1.44-.73-2.18-1.07-.43-.2-.86-.39-1.29-.58-.38-.16-.76-.32-1.13-.47-1.23-.49-2.46-.92-3.72-1.31-.42-.12-.84-.25-1.26-.36-.42-.12-.84-.23-1.26-.33-1.27-.32-2.54-.58-3.82-.79-2.58-.42-5.17-.63-7.81-.63-16.14,0-31.12,8.05-40.1,21.04-.28.42-.58.84-.85,1.27-.25.39-.49.78-.73,1.17-.15.25-.31.51-.44.75-.26.43-.49.86-.73,1.29-.2.35-.39.71-.57,1.08-.28.58-.56,1.15-.83,1.74l-.53,1.15-.02.07-8.86,19.24-4.16,9.08L18,749.25l-4.2,9.13-9.36,20.38c-.21.46-.39.93-.58,1.39-.02.04-.03.07-.05.11-1.29,3.07-2.26,6.22-2.89,9.41l-.15.73c-.61,2.89-.78,5.83-.76,8.79,0,.23,0,.49.01.75.01.8.04,1.6.1,2.4.05.85.12,1.71.22,2.56.04.36.09.7.14,1.06.07.54.16,1.1.26,1.64.1.6.22,1.21.36,1.81.05.21.1.43.15.64.14.59.28,1.18.44,1.76.17.65.37,1.31.58,1.96.02.11.06.22.11.33.16.54.34,1.07.55,1.6.02.09.05.19.09.27.57,1.53,1.2,3.01,1.9,4.45.21.44.43.87.67,1.31.26.51.53,1,.81,1.49.21.36.41.71.63,1.06.43.7.86,1.39,1.32,2.07.23.35.47.68.7,1.01,1.39,1.95,2.92,3.78,4.56,5.49.54.58,1.1,1.13,1.68,1.68.32.31.67.62,1,.91,0,.01.01.01.02.01.89.8,1.81,1.56,2.77,2.29.37.28.75.55,1.12.83.27.2.54.38.81.57.32.23.65.46.99.66.17.11.34.22.5.32.45.28.91.56,1.36.84,1.11.64,2.23,1.24,3.39,1.82.37.18.74.34,1.11.52.04.01.07.04.11.05.46.21.92.42,1.39.62.38.16.76.32,1.15.47.76.3,1.53.57,2.3.84.32.1.65.2.97.3,1,.31,2.65.76,3.67.99.39.09.85.2,1.27.27.38.07.75.15,1.13.21.54.1,1.1.18,1.64.26.48.06.95.12,1.42.17.52.06,1.05.11,1.58.14.28.04.58.05.86.06.41.02.81.05,1.22.06.52.01,1.05.03,1.56.03h.09c.57,0,1.12-.01,1.69-.04.58-.01,1.17-.05,1.75-.09.01,0,.02-.01.04,0,.55-.04,1.1-.09,1.64-.15.54-.06,1.08-.12,1.61-.21h.02c.69-.09,1.38-.2,2.06-.33.33-.06.68-.12,1.01-.2.34-.06.68-.15,1.02-.22t.02,0c.66-.16,1.32-.32,1.98-.51,1.33-.37,2.66-.8,3.97-1.28h.01c.65-.25,1.29-.51,1.93-.78.65-.27,1.29-.55,1.93-.86.64-.3,1.27-.62,1.9-.95l19.84-10.42,8.93-4.69,472.76-248.52,4.36-2.3,4.36-2.29,2.07,4.48,2.06,4.48,95.13,206.95h0ZM536.47,487.67l-4.36,2.29-365.19,191.98-7.16,3.76-7.15,3.76,3.38-7.34,3.38-7.34,228.85-497.8,2.71-5.89,2.72-5.91,2.7,5.9,2.71,5.89,137.66,299.44,2.07,4.48,2.06,4.48-4.37,2.3ZM671.96,537.54l-2.07-4.48-2.06-4.48,4.37-2.3,4.36-2.29,152.85-80.34,6.97-3.67,6.96-3.66-3.13,7.22h-.01l-3.13,7.22h-.01l-94.4,217.01-2.64,6.05-2.64,6.06-5.52-12-59.91-130.33Z"/>
    </g>
  </g>
</svg>