<?xml version="1.0" encoding="utf-8"?>
<!-- Generator: Adobe Illustrator 19.1.0, SVG Export Plug-In . SVG Version: 6.00 Build 0)  -->
<svg version="1.1" id="Layer_1" xmlns="http://www.w3.org/2000/svg" xmlns:xlink="http://www.w3.org/1999/xlink" x="0px" y="0px"
	 viewBox="0 0 389.4 84.2" style="enable-background:new 0 0 389.4 84.2;" xml:space="preserve">
<style type="text/css">
	.st0{fill:#FFFFFF;}
	.st1{fill-rule:evenodd;clip-rule:evenodd;fill:#FFA216;}
	.st2{fill-rule:evenodd;clip-rule:evenodd;fill:#6556C4;}
	.st3{fill-rule:evenodd;clip-rule:evenodd;fill:#2D96CB;}
	.st4{fill-rule:evenodd;clip-rule:evenodd;fill:#45AE3D;}
	.st5{fill-rule:evenodd;clip-rule:evenodd;fill:#F74E0A;}
</style>
<g>
	<path class="st0" d="M39.2,64c-0.1-1.6-0.1-3.2-0.1-4.6v-19c0-2.4-0.4-4.7-1.1-6.8c-0.7-2.1-1.9-3.9-3.4-5.5
		c-1.5-1.5-3.4-2.8-5.7-3.7c-2.3-0.9-5.1-1.3-8.2-1.3c-3.6,0-6.9,0.6-10,1.8c-3.1,1.2-5.8,2.8-7.9,4.8l-0.1,0.1l4.8,5.8l0.1-0.1
		c1.4-1.4,3.3-2.7,5.4-3.6c2.1-0.9,4.5-1.4,6.9-1.4c3.2,0,5.8,0.8,7.7,2.3c1.9,1.5,2.9,3.9,2.9,7.1v1c-3.6,0-7.2,0.2-10.8,0.5
		c-3.6,0.3-6.9,1-9.8,2c-2.9,1-5.3,2.5-7.1,4.5c-1.8,2-2.7,4.6-2.7,8c0,2.5,0.5,4.7,1.5,6.4c1,1.7,2.3,3.1,3.9,4.2
		c1.5,1,3.3,1.8,5.2,2.3c1.9,0.5,3.7,0.7,5.4,0.7c3.3,0,6.3-0.7,8.7-2c2.4-1.3,4.4-3.1,6-5.4c0,2,0.3,4.1,0.7,6.1l0,0.1h8.2L39.7,68
		C39.4,67,39.2,65.6,39.2,64z M30.4,49.5c0,3.6-1.1,6.7-3.2,9c-2.1,2.4-5.2,3.6-9.2,3.6c-1.1,0-2.2-0.1-3.2-0.3
		c-1-0.2-2-0.6-2.8-1.1c-0.8-0.5-1.5-1.2-2-2.1c-0.5-0.8-0.8-1.9-0.8-3.1c0-1.8,0.6-3.2,1.8-4.3c1.2-1.1,2.7-1.9,4.6-2.4
		c1.8-0.5,3.9-0.9,6.2-1.1c2.3-0.2,4.5-0.3,6.7-0.3h1.9V49.5z"/>
	<path class="st0" d="M82.8,57.1c-1.1,1.4-2.6,2.6-4.4,3.4c-1.8,0.8-3.8,1.3-5.9,1.3c-2.2,0-4.2-0.4-6-1.3c-1.7-0.8-3.2-2-4.4-3.4
		c-1.2-1.4-2.1-3.1-2.8-5c-0.6-1.9-1-3.9-1-5.9c0-2.1,0.3-4,1-5.9c0.6-1.9,1.6-3.5,2.8-5c1.2-1.4,2.7-2.6,4.4-3.4
		c1.7-0.8,3.7-1.3,5.9-1.3c2,0,4,0.5,5.8,1.4c1.8,0.9,3.2,2.1,4.1,3.5l0.1,0.2l6.6-5.3l-0.1-0.1c-1.8-2.3-4.2-4.2-7.3-5.4
		c-3-1.2-6.2-1.9-9.2-1.9c-3.3,0-6.5,0.6-9.3,1.7c-2.9,1.1-5.4,2.7-7.5,4.7c-2.1,2-3.7,4.5-4.9,7.3c-1.2,2.8-1.8,6-1.8,9.5
		c0,3.5,0.6,6.7,1.8,9.5c1.2,2.8,2.9,5.3,5,7.3c2.1,2,4.6,3.6,7.5,4.7c2.9,1.1,6,1.7,9.4,1.7c3.5,0,6.7-0.6,9.5-1.8
		c2.8-1.2,5.1-2.9,7-5.1l0.1-0.1L83,56.9L82.8,57.1z"/>
	<path class="st0" d="M126.9,57.1c-1.1,1.4-2.6,2.6-4.4,3.4c-1.8,0.8-3.8,1.3-5.9,1.3c-2.2,0-4.2-0.4-6-1.3c-1.7-0.8-3.2-2-4.4-3.4
		c-1.2-1.4-2.1-3.1-2.8-5c-0.6-1.9-1-3.9-1-5.9c0-2.1,0.3-4,1-5.9c0.6-1.9,1.6-3.5,2.8-5c1.2-1.4,2.7-2.6,4.4-3.4
		c1.7-0.8,3.7-1.3,5.9-1.3c2,0,4,0.5,5.8,1.4c1.8,0.9,3.2,2.1,4.1,3.5l0.1,0.2l6.6-5.3l-0.1-0.1c-1.8-2.3-4.2-4.2-7.3-5.4
		c-3-1.2-6.2-1.9-9.2-1.9c-3.3,0-6.5,0.6-9.3,1.7c-2.9,1.1-5.4,2.7-7.5,4.7c-2.1,2-3.7,4.5-4.9,7.3c-1.2,2.8-1.8,6-1.8,9.5
		c0,3.5,0.6,6.7,1.8,9.5c1.2,2.8,2.9,5.3,5,7.3c2.1,2,4.6,3.6,7.5,4.7c2.9,1.1,6,1.7,9.4,1.7c3.5,0,6.7-0.6,9.5-1.8
		c2.8-1.2,5.1-2.9,7-5.1l0.1-0.1l-6.1-5.5L126.9,57.1z"/>
	<path class="st0" d="M175.2,29.2c-1.8-2-4.1-3.5-6.7-4.6c-2.6-1-5.6-1.6-8.8-1.6c-3.2,0-6.2,0.6-9,1.7c-2.8,1.1-5.2,2.7-7.3,4.8
		c-2,2-3.6,4.5-4.8,7.4c-1.1,2.9-1.7,6-1.7,9.4c0,3.4,0.6,6.6,1.8,9.5c1.2,2.8,2.8,5.3,4.8,7.3c2,2,4.5,3.6,7.3,4.7
		c2.8,1.1,5.9,1.7,9.3,1.7c3.9,0,7.4-0.7,10.6-2.2c3.2-1.5,6-3.8,8.3-6.9l0.1-0.1l-6.4-5.1l-0.1,0.2c-1.2,1.8-2.9,3.4-5,4.6
		c-2.1,1.3-4.6,1.9-7.5,1.9c-1.9,0-3.7-0.3-5.3-1c-1.7-0.7-3.1-1.6-4.4-2.7c-1.3-1.2-2.3-2.6-3-4.1c-0.7-1.5-1.1-3.2-1.2-4.9h34.7
		l0-0.2c0.1-0.5,0.1-1,0.1-1.5v-1.5c0-3.5-0.5-6.7-1.5-9.5C178.5,33.6,177.1,31.2,175.2,29.2z M146.2,42.2c0.1-1.6,0.6-3.1,1.3-4.6
		c0.8-1.5,1.7-2.8,2.9-3.9c1.2-1.1,2.6-2,4.2-2.6c1.6-0.6,3.3-1,5.1-1c2,0,3.7,0.3,5.2,1c1.5,0.6,2.7,1.5,3.7,2.6
		c1,1.1,1.7,2.4,2.3,3.8c0.5,1.4,0.8,3,0.9,4.6H146.2z"/>
	<rect x="191.3" class="st0" width="9" height="69.3"/>
	<path class="st0" d="M256.4,36.8c-1.2-2.8-2.9-5.3-5-7.3c-2.1-2-4.7-3.6-7.6-4.8c-2.9-1.1-6-1.7-9.4-1.7c-3.3,0-6.5,0.6-9.4,1.7
		c-2.9,1.1-5.4,2.7-7.5,4.8c-2.1,2-3.8,4.5-5,7.3c-1.2,2.8-1.8,5.9-1.8,9.3c0,3.4,0.6,6.5,1.8,9.4c1.2,2.8,2.9,5.3,5,7.4
		c2.1,2.1,4.6,3.7,7.5,4.8c2.9,1.1,6,1.7,9.4,1.7c3.3,0,6.5-0.6,9.4-1.7c2.9-1.1,5.4-2.8,7.6-4.8c2.1-2.1,3.8-4.5,5-7.4
		c1.2-2.8,1.8-6,1.8-9.4C258.2,42.8,257.6,39.6,256.4,36.8z M247.9,52.1c-0.6,1.9-1.6,3.5-2.8,5c-1.2,1.4-2.7,2.6-4.5,3.4
		c-1.8,0.8-3.8,1.3-6.1,1.3c-2.3,0-4.4-0.4-6.1-1.3c-1.8-0.8-3.3-2-4.5-3.4c-1.2-1.4-2.1-3.1-2.8-5c-0.6-1.9-1-3.8-1-5.9
		c0-2.1,0.3-4,1-5.9c0.6-1.9,1.6-3.5,2.8-4.9c1.2-1.4,2.7-2.5,4.5-3.4c1.8-0.8,3.8-1.3,6.1-1.3c2.3,0,4.4,0.4,6.1,1.3
		c1.8,0.8,3.3,2,4.5,3.4c1.2,1.4,2.1,3.1,2.8,4.9c0.6,1.9,1,3.9,1,5.9C248.8,48.2,248.5,50.2,247.9,52.1z"/>
	<path class="st1" d="M360.7,60.9L360.7,60.9c0,2.5-2,4.5-4.5,4.5h-64.1c-2.5,0-4.5-2-4.5-4.5l0,0c0-2.5,2-4.5,4.5-4.5h64.1
		C358.7,56.4,360.7,58.4,360.7,60.9z"/>
	<path class="st2" d="M330.1,4.5L330.1,4.5c0,2.5-2,4.5-4.5,4.5h-48c-2.5,0-4.5-2-4.5-4.5l0,0c0-2.5,2-4.5,4.5-4.5h48
		C328.1,0,330.1,2,330.1,4.5z"/>
	<path class="st3" d="M360.7,23.3L360.7,23.3c0,2.5-2,4.5-4.5,4.5h-64.1c-2.5,0-4.5-2-4.5-4.5l0,0c0-2.5,2-4.5,4.5-4.5h64.1
		C358.7,18.8,360.7,20.8,360.7,23.3z"/>
	<path class="st4" d="M389.4,42.1L389.4,42.1c0,2.5-2,4.5-4.5,4.5h-78c-2.5,0-4.5-2-4.5-4.5l0,0c0-2.5,2-4.5,4.5-4.5h78
		C387.4,37.6,389.4,39.6,389.4,42.1z"/>
	<path class="st5" d="M330.1,79.7L330.1,79.7c0,2.5-2,4.5-4.5,4.5h-48c-2.5,0-4.5-2-4.5-4.5l0,0c0-2.5,2-4.5,4.5-4.5h48
		C328.1,75.2,330.1,77.2,330.1,79.7z"/>
</g>
</svg>
